<svg width="100" height="28" viewBox="0 0 100 28" fill="none" xmlns="http://www.w3.org/2000/svg">
<path fill-rule="evenodd" clip-rule="evenodd" d="M84.1852 23.6883C83.7783 23.5585 83.4235 23.4083 83.123 23.2372L81.7065 27.0337C82.3397 27.3169 82.9966 27.544 83.6694 27.7124C84.3558 27.8835 85.1069 27.969 85.9226 27.969C87.2098 27.969 88.3312 27.6997 89.2864 27.1635C90.2421 26.6274 90.9985 25.7028 91.5551 24.3951L99.4097 5.79361H93.6167L90.4624 14.9636L87.2769 5.79361H81.1601L87.8233 20.8213L86.9225 22.8517C86.749 23.2377 86.539 23.5041 86.293 23.6543C86.047 23.805 85.7208 23.8799 85.3115 23.8799C84.9698 23.8799 84.594 23.8176 84.1852 23.6883ZM75.1805 14.4663C75.5018 14.4352 75.8255 14.4065 76.1464 14.3861V17.3149C75.8669 17.5293 75.5584 17.7028 75.2301 17.8302C74.8956 17.9595 74.5281 18.0217 74.1188 18.0217C73.5622 18.0217 73.1271 17.8793 72.816 17.5891C72.5054 17.2994 72.3474 16.929 72.3474 16.4783C72.3474 16.0486 72.4874 15.6578 72.7669 15.3029C73.0469 14.9505 73.518 14.7176 74.1835 14.6112C74.5135 14.5481 74.8461 14.4998 75.1805 14.4663ZM76.5012 20.2753L76.9519 21.4999H81.6832V11.5866C81.6832 9.48368 81.0721 7.9325 79.8471 6.93549C78.6251 5.93556 76.983 5.43826 74.9243 5.43826C73.4431 5.43826 72.1715 5.65361 71.1098 6.08333C70.0566 6.50558 69.0828 7.10375 68.2301 7.85229L70.7394 10.6518C71.2264 10.2625 71.7617 9.93773 72.3319 9.68542C72.8868 9.44883 73.4845 9.32903 74.0877 9.33347C74.6448 9.33347 75.1289 9.48368 75.5353 9.7841C75.9422 10.0845 76.1464 10.5556 76.1464 11.2006V11.5866C75.6036 11.6117 75.0615 11.6488 74.5203 11.6979C73.8799 11.7581 73.2416 11.8391 72.6065 11.941C71.88 12.0406 71.1675 12.2241 70.4832 12.4878C69.8172 12.744 69.2319 13.078 68.7274 13.4844C68.2287 13.8856 67.823 14.3903 67.5383 14.9636C67.2486 15.5435 67.1033 16.2222 67.1033 16.9936C67.1033 17.7447 67.2301 18.4101 67.4892 18.9876C67.7383 19.5573 68.1054 20.0677 68.5665 20.4849C69.0278 20.9044 69.5712 21.2203 70.193 21.4352C70.8142 21.6472 71.4904 21.756 72.2206 21.756C73.1865 21.756 74.0333 21.6112 74.7639 21.321C75.4916 21.0337 76.0715 20.6842 76.5012 20.2749V20.2753ZM42.0715 1.82549L49.0326 21.4994H53.3133L55.7579 13.2588L58.2366 21.4994H62.5484L68.1187 5.79313H62.3564L60.0386 14.129L57.6251 5.79264H53.9554L51.5419 14.1294L47.5178 1.82597H42.0715V1.82549ZM32.1013 5.79264V9.71896H34.3228V16.6072C34.3228 17.3995 34.4035 18.117 34.564 18.7621C34.7244 19.4067 34.999 19.9531 35.3855 20.4037C35.771 20.8543 36.2809 21.2043 36.9128 21.4503C37.5472 21.6963 38.3245 21.8207 39.2462 21.8207C40.3419 21.8207 41.3024 21.6909 42.1288 21.4347C42.9547 21.1756 43.7213 20.8028 44.4281 20.3079L42.9805 16.8949C42.6846 17.1205 42.3661 17.3149 42.0301 17.4749C41.6854 17.6448 41.3062 17.7335 40.9218 17.734C40.5125 17.734 40.251 17.5837 40.1319 17.2833C40.0152 16.9829 39.9559 16.5634 39.9559 16.0272V9.71945H43.734L42.3437 5.79313H39.9559V1.83375H34.3233V5.79313H32.1013V5.79264ZM26.197 9.73451C26.6369 10.2158 26.8883 10.8769 26.9529 11.7154H22.0612C22.1467 10.8997 22.4316 10.2444 22.9133 9.75007C23.3975 9.25813 23.9594 9.00924 24.604 9.00924C25.2258 9.00924 25.7566 9.25229 26.197 9.73451ZM22.9469 16.9129C22.3772 16.3874 22.0719 15.6519 22.0276 14.7065H32.2311C32.2102 11.5526 31.5083 9.21924 30.1228 7.70646C28.7399 6.19465 26.8781 5.43826 24.5394 5.43826C23.4028 5.43826 22.346 5.61958 21.3699 5.98465C20.3933 6.34972 19.5519 6.8859 18.8422 7.59514C18.1324 8.30243 17.5758 9.16479 17.1694 10.1851C16.7601 11.2055 16.5579 12.3678 16.5579 13.6783C16.5579 15.0302 16.7703 16.2139 17.2001 17.2342C17.6303 18.2517 18.2102 19.1009 18.9403 19.7747C19.6681 20.4533 20.5202 20.9632 21.4992 21.3049C22.4753 21.6472 23.519 21.8202 24.6351 21.8202C25.5573 21.8202 26.3885 21.7453 27.1289 21.5951C27.8697 21.4449 28.525 21.2301 29.0923 20.9506C29.6308 20.6917 30.1388 20.3738 30.607 20.0026C31.0474 19.6478 31.4383 19.2565 31.7829 18.8267L28.3383 16.123C27.9057 16.6592 27.44 17.0583 26.9374 17.314C26.4323 17.5735 25.8266 17.7004 25.1193 17.7004C24.2394 17.7004 23.5142 17.4389 22.9464 16.9129H22.9469ZM6.33889 17.6542C6.11333 17.6202 5.88049 17.574 5.64472 17.5065V9.91097C5.90382 9.82542 6.16 9.75542 6.4191 9.70389C6.69425 9.64806 6.97446 9.62101 7.25521 9.62319C8.15646 9.62319 8.90264 9.94451 9.49278 10.5867C10.081 11.2317 10.376 12.2287 10.376 13.5806C10.376 14.9762 10.0756 16.0122 9.47479 16.6883C8.87396 17.364 8.09181 17.7004 7.1259 17.7004C6.82549 17.7004 6.56396 17.6849 6.3384 17.6542H6.33889ZM7.01458 5.55007C6.55138 5.62097 6.09366 5.72395 5.64472 5.85826V0.03125H0.0145836V20.5646C0.978056 20.9301 2.02951 21.2354 3.16653 21.4819C4.30597 21.7303 5.5825 21.8547 6.9966 21.8547C8.28333 21.8547 9.46944 21.6812 10.5549 21.3394C11.637 20.9948 12.5772 20.4742 13.3695 19.7751C14.1648 19.081 14.7812 18.1953 15.2216 17.121C15.6615 16.0486 15.8817 14.7823 15.8817 13.3244C15.8817 12.2287 15.7213 11.2006 15.3976 10.2347C15.0767 9.26882 14.6101 8.43222 13.999 7.72299C13.388 7.01569 12.6292 6.45667 11.7279 6.04979C10.8267 5.6434 9.80875 5.43875 8.67222 5.43875C8.04805 5.43875 7.49583 5.47472 7.01458 5.55007Z" fill="white"/>
</svg>
