<svg width="116" height="28" viewBox="0 0 116 28" fill="none" xmlns="http://www.w3.org/2000/svg">
<g clip-path="url(#clip0_8_564)">
<path d="M31.9484 25.1832V27.6863H27.6781V0H31.9484V10.4409C33.1227 8.79845 35.4287 7.66518 37.9711 7.66518C43.9151 7.66518 47.3182 11.8878 47.3182 17.8318C47.3182 23.7757 43.9151 28 37.8939 28C35.2726 28 32.8878 26.8257 31.9484 25.1832ZM43.0544 17.8318C43.0544 13.9212 40.7862 11.3803 37.3454 11.3803C33.9045 11.3803 31.6363 13.9212 31.6363 17.8318C31.6363 21.703 33.9045 24.2848 37.3454 24.2848C40.7862 24.2848 43.0544 21.703 43.0544 17.8318ZM59.9566 11.6612C57.0626 11.6612 54.5284 14.2349 54.5284 20.3348V27.6863H50.2581V7.97724H54.5284V11.7318C55.5845 9.3848 58.1647 7.66518 60.5511 7.66518C61.2958 7.65458 62.0366 7.77351 62.7405 8.01666L62.5056 12.1227C61.6951 11.8008 60.8285 11.6439 59.9566 11.6612ZM80.5181 15.4076V27.6863H76.3332V24.6757C75.1999 26.6696 72.774 28 70.1544 28C66.2438 28 63.5453 25.5364 63.5453 22.1727C63.5453 18.3015 66.5575 16.2288 72.618 15.603L76.3332 15.2121V14.946C76.3332 12.5218 74.6513 11.0354 72.0711 11.0354C69.6846 11.0354 68.0044 12.443 67.7302 14.79L63.8984 14.0854C64.5242 10.2142 67.8862 7.67996 72.0711 7.67996C77.0755 7.66518 80.5181 10.4803 80.5181 15.4076ZM76.3332 19.2015V18.3803L72.5786 18.8107C69.3726 19.1638 67.7302 20.3365 67.7302 22.0577C67.7302 23.6213 69.0211 24.7168 71.015 24.7168C74.3393 24.7152 76.2937 22.4076 76.3332 19.2015ZM82.778 22.2121L86.2977 20.7257C86.9629 22.8379 88.4887 24.5969 91.225 24.5969C93.2583 24.5969 94.6281 23.4242 94.6281 22.0167C94.6281 17.7464 83.6387 20.5303 83.6387 13.0605C83.6387 9.97114 86.3372 7.66518 90.5992 7.66518C94.3144 7.66518 97.4432 9.61966 98.3038 12.5136L94.7841 13.9918C94.275 12.0357 92.4371 10.9418 90.6387 10.9418C88.7614 10.9418 87.5887 11.6842 87.5887 12.9751C87.5887 16.7675 98.6553 13.8735 98.6553 21.969C98.6553 25.3705 95.6842 27.9918 91.225 27.9918C86.4111 28 83.6731 25.0272 82.778 22.2121ZM100.089 22.2121L103.609 20.7257C104.266 22.8379 105.798 24.5969 108.536 24.5969C110.569 24.5969 111.938 23.4242 111.938 22.0167C111.938 17.7464 100.95 20.5303 100.95 13.0605C100.95 9.97114 103.648 7.66518 107.91 7.66518C111.626 7.66518 114.754 9.61966 115.613 12.5136L112.095 13.9918C111.586 12.0357 109.748 10.9418 107.95 10.9418C106.072 10.9418 104.9 11.6842 104.9 12.9751C104.9 16.7675 115.966 13.8735 115.966 21.969C115.966 25.3705 112.994 27.9918 108.536 27.9918C103.725 28 100.989 25.0272 100.089 22.2121Z" fill="white"/>
<path d="M14.2086 7.97729H-1.14441e-05V13.4778H12.9636L10.2142 16.2272H-1.14441e-05V20.3529H6.08844L-1.14441e-05 26.4414L1.24494 27.6864L7.3334 21.5979V27.6864H11.4592V17.4738L14.2086 14.7227V27.6864H19.709V7.97729H14.2086Z" fill="#0BCE5A"/>
</g>
<defs>
<clipPath id="clip0_8_564">
<rect width="115.966" height="28" fill="white"/>
</clipPath>
</defs>
</svg>
