<svg width="117" height="28" viewBox="0 0 117 28" fill="none" xmlns="http://www.w3.org/2000/svg">
<g clip-path="url(#clip0_8_464)">
<path d="M49.6496 12.4404C50.5569 11.6222 51.6657 11.2214 52.9929 11.2214C54.3369 11.2214 55.4457 11.6222 56.353 12.4404C57.2601 13.242 57.7137 14.2939 57.7137 15.5797C57.7137 16.8488 57.2601 17.9007 56.353 18.7022C55.4625 19.4871 54.3537 19.8878 53.0097 19.8878C51.6657 19.8878 50.5569 19.4871 49.6496 18.7022C48.7592 17.9007 48.3056 16.8488 48.3056 15.5797C48.3056 14.2939 48.7592 13.242 49.6496 12.4404ZM53.0097 17.5668C54.0681 17.5668 54.9081 16.7819 54.9081 15.5797C54.9081 14.3607 54.0681 13.5425 53.0097 13.5425C51.9512 13.5425 51.1112 14.3607 51.1112 15.5797C51.1112 16.7819 51.9681 17.5668 53.0097 17.5668Z" fill="white"/>
<path d="M64.0473 11.2214C62.8713 11.2214 61.981 11.7056 61.4097 12.6575H61.3761L61.393 12.4572V12.3402C61.393 11.7558 60.9897 11.4051 60.2337 11.4051H57.7473V13.7429H58.3689C58.6209 13.7429 58.7217 13.8598 58.7217 14.0935V19.6875H61.5273V16.0138C61.5273 15.5964 61.5777 15.229 61.6953 14.9285C61.9641 14.1436 62.5186 13.7429 63.3417 13.7429C63.9633 13.7429 64.2658 14.1102 64.2658 14.8282V18.5186C64.2658 19.3368 64.6186 19.6875 65.4418 19.6875H67.0546V14.3273C67.0546 12.24 66.0466 11.2214 64.0473 11.2214Z" fill="white"/>
<path d="M69.0538 8.19897V10.4532H71.4058V8.19897H69.0538ZM70.4651 11.405H67.8778V13.7428H68.4995C68.7346 13.7428 68.8522 13.8596 68.8522 14.0934V18.5184C68.8522 19.3367 69.2051 19.6873 70.0282 19.6873H71.6411V12.5906C71.6411 11.7557 71.2883 11.405 70.4651 11.405Z" fill="white"/>
<path d="M73.8083 12.4572C74.598 11.6388 75.6565 11.2214 76.9668 11.2214C78.1596 11.2214 79.1005 11.5888 79.7892 12.3402C80.4781 13.075 80.8308 14.0434 80.8308 15.2123C80.8308 15.4126 80.8141 15.6965 80.7637 16.0806H75.5052C75.7068 17.0492 76.4964 17.5668 77.4541 17.5668C78.1428 17.5668 78.9157 17.2995 79.7557 16.7319L80.7973 18.6855C79.9068 19.437 78.5292 19.8878 77.2356 19.8878C75.8245 19.8878 74.7156 19.4537 73.8923 18.602C73.0692 17.7504 72.666 16.7151 72.666 15.5462C72.6323 14.3107 73.0187 13.2754 73.8083 12.4572ZM78.0588 14.4943C78.0588 13.793 77.6052 13.2586 76.9164 13.2586C76.2108 13.2586 75.7572 13.6761 75.5723 14.4943H78.0588Z" fill="white"/>
<path d="M81.822 11.5554H83.2836V12.2734C83.2836 12.6073 83.2332 12.8913 83.2332 12.8913H83.2668C83.7876 11.906 84.8292 11.355 86.022 11.355C88.2396 11.355 89.6172 13.0916 89.6172 15.613C89.6172 18.2013 88.0548 19.8711 85.9045 19.8711C84.8628 19.8711 83.922 19.3534 83.3676 18.4852H83.334C83.334 18.4852 83.4012 18.769 83.4012 19.1864V22.8934H81.8387V11.5554H81.822ZM85.6692 18.5352C86.9628 18.5352 88.0381 17.4833 88.0381 15.6464C88.0381 13.8764 87.0804 12.7409 85.7196 12.7409C84.4932 12.7409 83.3508 13.6093 83.3508 15.6631C83.3508 17.0992 84.1572 18.5352 85.6692 18.5352Z" fill="white"/>
<path d="M94.7751 11.355C97.2279 11.355 99.1935 13.1416 99.1935 15.5963C99.1935 18.0677 97.2111 19.8711 94.7919 19.8711C92.3391 19.8711 90.3734 18.0677 90.3734 15.5963C90.3734 13.1416 92.3558 11.355 94.7751 11.355ZM94.7919 18.5352C96.3374 18.5352 97.6143 17.3163 97.6143 15.613C97.6143 13.9264 96.3374 12.7243 94.7919 12.7243C93.2294 12.7243 91.9694 13.9264 91.9694 15.613C91.9863 17.3163 93.2463 18.5352 94.7919 18.5352Z" fill="white"/>
<path d="M100.42 8.33252H102.033V9.90216H100.42V8.33252ZM100.453 11.5553H102.016V19.7041H100.453V11.5553Z" fill="white"/>
<path d="M103.78 11.5554H105.309V12.6575C105.309 12.9914 105.258 13.2753 105.258 13.2753H105.292C105.594 12.574 106.602 11.355 108.4 11.355C110.332 11.355 111.206 12.407 111.206 14.4775V19.6874H109.643V14.8282C109.643 13.6927 109.425 12.7911 108.098 12.7911C106.502 12.7911 105.359 14.1102 105.359 15.78V19.6874H103.797V11.5554H103.78Z" fill="white"/>
<path d="M113.238 12.908H112.163V11.6389H113.272V9.31787H114.817V11.6389H116.8V12.908H114.817V16.5482C114.817 18.168 115.96 18.385 116.565 18.385C116.682 18.385 116.783 18.385 116.934 18.3516V19.7376C116.8 19.7542 116.631 19.7876 116.38 19.7876C115.322 19.7876 113.238 19.4537 113.238 16.732V12.908Z" fill="white"/>
<path d="M47.4152 14.778L46.8776 8.19897H43.6016C43.6016 8.19897 41.0984 13.2752 40.8967 13.9598H40.8631L38.2423 8.19897H34.9663L34.4286 13.9098L33.975 19.7041H35.9743C36.8311 19.7041 37.1839 19.3367 37.2511 18.435C37.2511 18.435 37.5871 13.125 37.5367 12.3568H37.5703L37.6711 12.7075C37.8055 13.175 39.6704 17.7002 39.6704 17.7002H42.1231C42.1231 17.7002 43.988 13.2418 44.2231 12.3568H44.2567L44.5424 18.435C44.6096 19.3367 44.9624 19.7041 45.8192 19.7041H47.8184L47.4152 14.778Z" fill="white"/>
<path d="M14.1122 27.9528H14.0114C7.4929 27.9362 3.12485 26.5836 2.21763 25.7486C1.26001 24.897 0 20.4888 0 13.9765C0 7.48081 1.26001 3.05578 2.21763 2.20416C3.12485 1.36926 7.5097 0.0166982 14.0114 0H14.1122C20.6307 0.0166982 24.9987 1.36926 25.906 2.20416C26.8636 3.05578 28.1236 7.48081 28.1236 13.9765C28.1236 20.472 26.8636 24.897 25.906 25.7486C24.9987 26.6003 20.6307 27.9528 14.1122 27.9528Z" fill="#0357EE"/>
<path d="M20.5467 14.811L20.0091 8.28198H16.7666C16.7666 8.28198 14.297 13.3082 14.0786 13.9928H14.045L11.441 8.28198H8.18172L7.64411 13.9427L7.19051 19.6869H9.17293C10.0297 19.6869 10.3657 19.3196 10.4329 18.4178C10.4329 18.4178 10.7689 13.1578 10.7185 12.3898H10.7521L10.853 12.7404C10.9874 13.208 12.8354 17.6998 12.8354 17.6998H15.2714C15.2714 17.6998 17.1195 13.2748 17.3546 12.3898H17.3882L17.6738 18.4178C17.7411 19.3196 18.0938 19.6869 18.9338 19.6869H20.9162L20.5467 14.811Z" fill="white"/>
</g>
<defs>
<clipPath id="clip0_8_464">
<rect width="116.934" height="28" fill="white"/>
</clipPath>
</defs>
</svg>
