<svg width="36" height="18" viewBox="0 0 36 18" fill="none" xmlns="http://www.w3.org/2000/svg">
<g clip-path="url(#clip0_8_317)">
<path d="M18 6.10352e-05C8.05898 6.10352e-05 3.05176e-05 4.02957 3.05176e-05 9.00002C3.05176e-05 13.9706 8.05898 18 18 18C27.9411 18 36 13.9705 36 9.00002C36 4.0295 27.9411 6.10352e-05 18 6.10352e-05ZM18 16.5792C8.84364 16.5792 1.42094 13.1859 1.42094 9.00002C1.42094 4.81416 8.84371 1.4209 18 1.4209C27.1564 1.4209 34.5791 4.81416 34.5791 9.00002C34.5791 13.1859 27.1563 16.5792 18 16.5792ZM15.73 7.42109V5.99996H20.808V7.42109H18.9799V12.0001H17.5585V7.42109H15.73ZM26.9375 5.99996V12.0002H25.5167L22.9396 8.42829V12.0002H21.5187V5.99996H22.9395L25.5166 9.57184V5.99996H26.9375ZM9.02021 12.0002V5.99996H10.4411L12.0198 8.42829L13.5984 5.99996H15.0187V12.0002H13.5984V8.60631L12.5207 10.2629H11.5189L10.4411 8.60631V12.0002H9.02021Z" fill="white"/>
</g>
<defs>
<clipPath id="clip0_8_317">
<rect width="36" height="18" fill="white"/>
</clipPath>
</defs>
</svg>
