<svg width="148" height="28" viewBox="0 0 148 28" fill="none" xmlns="http://www.w3.org/2000/svg">
<g clip-path="url(#clip0_8_551)">
<path d="M39.4438 22.707V28.0002H36.1241V10.769H39.4438V11.5934C40.4325 10.9505 41.5843 10.6037 42.7635 10.5938C46.5332 10.5938 49.3052 13.5907 49.3052 17.1613C49.3052 20.7318 46.5591 23.7288 42.7635 23.7288C41.5792 23.7307 40.422 23.3746 39.4438 22.707ZM39.4438 15.5899V18.6367C39.7057 19.1943 40.1126 19.6712 40.6221 20.0175C41.1315 20.3638 41.7247 20.5668 42.3395 20.6052C42.9543 20.6436 43.5681 20.516 44.1167 20.2358C44.6653 19.9556 45.1285 19.5331 45.4577 19.0124C45.787 18.4918 45.9702 17.8922 45.9882 17.2765C46.0062 16.6607 45.8583 16.0515 45.5601 15.5125C45.2619 14.9735 44.8242 14.5246 44.2929 14.2128C43.7617 13.901 43.1564 13.7377 42.5404 13.7401C41.9035 13.7311 41.2766 13.8993 40.7298 14.226C40.183 14.5527 39.7378 15.0249 39.4438 15.5899Z" fill="white"/>
<path d="M51.1034 7.2962C51.0925 7.04491 51.1332 6.79405 51.2229 6.55906C51.3126 6.32407 51.4494 6.1099 51.6249 5.92973C51.8004 5.74956 52.0109 5.60719 52.2434 5.51138C52.476 5.41557 52.7257 5.36834 52.9772 5.3726C53.2321 5.36818 53.4854 5.41473 53.7221 5.50953C53.9589 5.60434 54.1742 5.74548 54.3557 5.92466C54.5371 6.10385 54.6809 6.31748 54.7786 6.553C54.8763 6.78853 54.926 7.0412 54.9248 7.2962C54.9194 7.80903 54.7118 8.29902 54.3471 8.65959C53.9824 9.02016 53.49 9.22215 52.9772 9.22163C52.7271 9.22047 52.4797 9.16949 52.2495 9.07168C52.0193 8.97386 51.8109 8.83116 51.6365 8.65191C51.462 8.47266 51.325 8.26046 51.2335 8.02769C51.142 7.79492 51.0977 7.54625 51.1034 7.2962ZM51.3044 10.769H54.6758V23.5296H51.3044V10.769Z" fill="white"/>
<path d="M56.6713 17.1132C56.6646 16.2543 56.8296 15.4028 57.1567 14.6086C57.4837 13.8144 57.9663 13.0937 58.5759 12.4887C59.1856 11.8837 59.91 11.4066 60.7066 11.0856C61.5033 10.7646 62.3561 10.6061 63.2148 10.6194C64.389 10.62 65.5448 10.9115 66.5788 11.4678V10.7688H69.8764V22.8046C69.8764 26.1244 67.003 27.9244 63.4085 27.9244C61.0607 27.9244 58.8125 27.2254 57.3389 26.0801L58.7129 23.7083C60.1134 24.6055 61.7454 25.0741 63.4085 25.0565C65.7304 25.0565 66.4552 24.1344 66.5548 22.635C65.5546 23.2748 64.3947 23.6205 63.2075 23.6327C59.3861 23.629 56.6713 20.7833 56.6713 17.1132ZM66.5788 18.5351V15.6894C66.2999 15.0956 65.8587 14.5928 65.3062 14.2391C64.7537 13.8853 64.1125 13.695 63.4564 13.6902C63.0034 13.6858 62.554 13.771 62.1341 13.9409C61.7141 14.1107 61.3319 14.362 61.0093 14.6801C60.6868 14.9982 60.4303 15.3769 60.2546 15.7944C60.0788 16.212 59.9874 16.6602 59.9855 17.1132C59.9855 19.0847 61.483 20.4587 63.4325 20.4587C64.0866 20.4757 64.7317 20.3032 65.2899 19.9619C65.8482 19.6206 66.2958 19.1251 66.5788 18.5351Z" fill="white"/>
<path d="M71.8775 17.1132C71.8707 16.2543 72.0357 15.4028 72.3628 14.6086C72.6899 13.8144 73.1724 13.0937 73.7821 12.4887C74.3917 11.8837 75.1162 11.4066 75.9128 11.0856C76.7094 10.7646 77.5622 10.6061 78.421 10.6194C79.5976 10.619 80.756 10.9105 81.7924 11.4678V10.7688H85.0881V22.8046C85.0881 26.1244 82.2165 27.9244 78.622 27.9244C76.2742 27.9244 74.0261 27.2254 72.5525 26.0801L73.9265 23.7083C75.3268 24.6058 76.9589 25.0744 78.622 25.0565C80.944 25.0565 81.6688 24.1344 81.7684 22.635C80.768 23.2745 79.6082 23.6202 78.421 23.6327C74.5996 23.629 71.8775 20.7833 71.8775 17.1132ZM81.7924 18.5351V15.6894C81.5132 15.0957 81.072 14.5931 80.5196 14.2394C79.9671 13.8856 79.3259 13.6953 78.67 13.6902C78.217 13.6858 77.7676 13.771 77.3476 13.9409C76.9277 14.1107 76.5454 14.362 76.2228 14.6801C75.9003 14.9982 75.6438 15.3769 75.4681 15.7944C75.2924 16.212 75.2009 16.6602 75.199 17.1132C75.199 19.0847 76.6966 20.4587 78.646 20.4587C79.3001 20.4755 79.945 20.3029 80.5033 19.9616C81.0615 19.6203 81.5092 19.1249 81.7924 18.5351Z" fill="white"/>
<path d="M89.9312 10.769L93.2786 19.2841L96.7237 10.769H100.228L92.8784 28.0002H89.7578L91.6021 23.4061L86.2371 10.769H89.9312Z" fill="white"/>
<path d="M99.5916 10.769H103.162L106.415 19.3856L109.637 10.769H113.142L108.022 23.5297H104.663L99.5916 10.769Z" fill="white"/>
<path d="M113.378 17.0617C113.378 13.4671 115.949 10.4941 119.969 10.4941C123.691 10.4941 126.518 13.2919 126.586 16.9676C126.612 17.2837 126.612 17.6013 126.586 17.9174H116.524C116.624 19.7156 118.346 20.8886 120.194 20.8886C121.718 20.8886 122.616 20.4644 123.665 19.5976L125.489 21.5211C124.014 23.0685 122.538 23.7933 120.194 23.7933C115.875 23.7804 113.378 20.5584 113.378 17.0617ZM116.697 15.5383H123.141C122.817 14.3413 121.666 13.2919 119.919 13.2919C117.896 13.2919 117.048 14.3155 116.697 15.5383Z" fill="white"/>
<path d="M127.284 22.1575L128.916 19.5091C130.381 20.4855 132.098 21.0148 133.858 21.0325C135.533 21.0325 136.381 20.6083 136.381 19.8853C136.381 19.4095 135.981 19.0609 135.133 18.8857L131.629 18.1369C129.058 17.5836 127.883 16.3646 127.883 14.3672C127.883 12.2444 129.681 10.4702 133.403 10.4702C135.649 10.4702 137.645 11.1212 139.021 11.9696L137.497 14.5166C136.374 13.9172 134.877 13.268 133.302 13.268C131.88 13.268 131.055 13.6184 131.055 14.2658C131.055 14.6918 131.356 14.9666 132.178 15.116L135.129 15.6693C138.325 16.2926 139.555 17.7164 139.555 19.64C139.555 22.4065 136.789 23.8598 133.761 23.8598C131.486 23.9037 129.243 23.3144 127.284 22.1575Z" fill="white"/>
<path d="M140.219 10.7688H142.117V7.24807L145.437 5.10132V10.7688H147.384V13.6662H145.439V23.5313H142.119V13.6662H140.218V10.7688H140.219Z" fill="white"/>
<path d="M27.8119 12.8217C27.7565 12.0117 27.6237 11.2088 27.4153 10.4241C26.4655 6.91996 24.4645 4.16274 21.414 2.19489C19.4926 0.945292 17.2857 0.203502 14.9996 0.0389142C14.0391 -0.0312375 13.0741 -0.00528863 12.1188 0.116374C11.1124 0.249579 10.1232 0.490091 9.16795 0.833803C6.62433 1.75133 4.40435 3.39232 2.78108 5.55493C1.15781 7.71754 0.202047 10.3075 0.0313415 13.0061C-1.14441e-05 13.5022 -1.14441e-05 14.002 -1.14441e-05 14.5V26.6059C-1.14441e-05 26.9204 0.124929 27.222 0.347324 27.4444C0.569719 27.6668 0.871352 27.7918 1.18587 27.7918H5.86298C6.15568 27.79 6.43754 27.6808 6.65511 27.485C6.87267 27.2892 7.01081 27.0204 7.04333 26.7295C7.07411 26.6158 7.09022 26.4987 7.09128 26.3809V26.1006C7.08852 26.0791 7.08852 26.0574 7.09128 26.036V26.0047C7.12318 26.0131 7.15321 26.0275 7.17981 26.0471C8.92926 27.0145 10.8668 27.5932 12.8602 27.7438C13.6587 27.8029 14.4607 27.7949 15.2578 27.7199C17.1343 27.547 18.9555 26.9919 20.6093 26.0885C22.2631 25.1852 23.7144 23.9528 24.8739 22.4673C26.5266 20.3883 27.5379 17.8729 27.7842 15.2285C27.8676 14.4288 27.8769 13.6231 27.8119 12.8217ZM16.4142 20.5566C16.4059 20.5993 16.3829 20.6376 16.3492 20.6649C16.3154 20.6923 16.2731 20.7068 16.2297 20.706H11.619C11.5756 20.7068 11.5333 20.6923 11.4996 20.6649C11.4658 20.6376 11.4428 20.5993 11.4346 20.5566V20.5271V20.3556C11.4336 20.144 11.4571 19.9329 11.5047 19.7267C11.5342 19.6566 11.5526 19.5736 11.5821 19.4962C11.6116 19.4187 11.6411 19.3468 11.6707 19.2712C11.7002 19.1955 11.7481 19.1273 11.7887 19.0628L11.8551 18.9632C11.8984 18.8987 11.9459 18.8371 11.9971 18.7787C12.0506 18.7123 12.1041 18.6552 12.1575 18.5943C12.435 18.3214 12.7722 18.1168 13.1424 17.9968C12.8235 17.8231 12.5714 17.5483 12.4259 17.2156C12.2804 16.8829 12.2497 16.5113 12.3387 16.1593C12.4276 15.8072 12.6312 15.4948 12.9173 15.2712C13.2034 15.0475 13.5557 14.9255 13.9188 14.9242C14.3524 14.9275 14.7674 15.1002 15.0752 15.4055C15.2534 15.5849 15.3875 15.8031 15.4671 16.043C15.5467 16.283 15.5695 16.5381 15.5337 16.7884C15.498 17.0386 15.4046 17.2772 15.2611 17.4853C15.1175 17.6933 14.9276 17.8653 14.7064 17.9875C15.2044 18.1517 15.6378 18.4691 15.9445 18.8945C16.2512 19.3198 16.4156 19.8312 16.4142 20.3556C16.4142 20.422 16.4142 20.4939 16.4142 20.5566ZM24.3631 10.5126H3.49307C3.45395 10.5124 3.41546 10.5028 3.38075 10.4848C3.34604 10.4667 3.31611 10.4407 3.29342 10.4088C3.27074 10.377 3.25594 10.3402 3.25025 10.3014C3.24456 10.2627 3.24814 10.2232 3.26069 10.1862C4.03942 7.97931 5.4835 6.06831 7.39388 4.71659C9.30427 3.36486 11.5869 2.63897 13.9271 2.63897C16.2674 2.63897 18.55 3.36486 20.4604 4.71659C22.3708 6.06831 23.8149 7.97931 24.5936 10.1862C24.6061 10.2231 24.6097 10.2624 24.6041 10.301C24.5985 10.3396 24.5839 10.3763 24.5614 10.4081C24.5389 10.4399 24.5092 10.466 24.4748 10.4841C24.4403 10.5023 24.402 10.5121 24.3631 10.5126Z" fill="white"/>
</g>
<defs>
<clipPath id="clip0_8_551">
<rect width="147.386" height="28" fill="white"/>
</clipPath>
</defs>
</svg>
