<svg width="102" height="24" viewBox="0 0 102 24" fill="none" xmlns="http://www.w3.org/2000/svg">
<path d="M86.7967 4.79369C86.7967 3.37451 85.5983 3.18528 86.7967 2.20762L88.9098 0.473063C89.1936 0.220763 89.6667 0 90.0766 0C90.5812 0 90.9912 0.315376 90.9912 1.35611V9.90276C92.0635 8.57819 93.3881 7.56899 95.1226 7.56899C97.141 7.56899 98.9387 8.9251 99.3486 11.2589C99.6325 12.8357 99.8217 19.6163 100.074 20.9093C100.263 21.8555 101.052 22.0762 101.052 22.9277C101.052 23.4008 100.642 23.6531 100.137 23.6531H96.1634C95.6272 23.6531 95.1226 23.18 95.1542 22.0131C95.2172 20.1209 95.7534 17.6925 95.8795 14.1603C95.9741 11.2589 96.0688 9.27201 94.3027 9.27201C93.2935 9.27201 92.0004 10.2812 90.9912 11.7635V18.8909C90.9912 21.477 91.8743 22.2024 91.8743 22.9277C91.8743 23.6531 90.9912 23.6531 90.9912 23.6531H86.7967C86.1975 23.6531 85.9137 23.4008 85.9137 22.9277C85.9137 22.2024 86.7967 21.477 86.7967 18.8909V4.79369Z" fill="white"/>
<path d="M72.7086 15.8003C72.7086 10.8804 75.3262 7.56899 80.183 7.56899C82.5483 7.56899 85.2605 8.79895 85.2605 10.912C85.2605 11.7004 84.5667 12.615 83.3367 12.615C81.0345 12.615 81.5706 8.60973 80.183 8.60973C79.1738 8.60973 77.3446 10.8804 77.3446 15.8003C77.3446 20.4047 79.0792 22.9277 80.183 22.9277C81.4129 22.9277 82.359 21.4455 82.706 20.0578C82.8952 19.3009 83.4313 19.0171 83.9675 19.0171C84.7244 19.0171 85.4182 19.6163 85.2605 20.4993C85.0397 21.6347 83.2106 23.9685 80.183 23.9685C75.3262 23.9685 72.7086 20.4047 72.7086 15.8003Z" fill="white"/>
<path d="M58.4256 19.4586C58.4256 15.3903 62.0839 14.5388 65.0484 13.2142C65.6792 12.9304 66.3415 12.5204 66.8461 12.1735C66.6884 10.1551 66.0892 8.60973 65.0169 8.60973C63.6293 8.60973 62.5885 12.615 60.2863 12.615C59.0563 12.615 58.5833 11.7004 58.5833 10.912C58.5833 8.79895 61.2324 7.56899 65.0169 7.56899C68.5806 7.56899 69.9683 8.9251 70.3783 11.2589C70.6621 12.8357 70.8513 19.6163 71.1036 20.9093C71.2929 21.8555 72.0813 22.0762 72.0813 22.9277C72.0813 23.4008 71.6713 23.6531 71.1667 23.6531H67.193C66.8145 23.6531 66.4361 23.4008 66.2784 22.8016C65.3638 23.4954 64.0077 24 62.8408 24C60.1286 24 58.4256 21.6978 58.4256 19.4586ZM65.4584 14.6334C64.3862 15.3903 63.0616 16.6518 63.0616 19.1748C63.0616 20.0894 63.2824 21.887 64.7015 21.887C65.2692 21.887 65.7423 21.6662 66.2153 21.3824C66.373 19.5848 66.783 17.3141 66.9092 14.1603V13.6242C66.5622 13.8765 66.0576 14.2234 65.4584 14.6334Z" fill="white"/>
<path d="M43.823 4.79369C42.8453 3.78449 42.6246 3.18528 43.823 2.20762L45.936 0.473063C46.2198 0.220763 46.6929 0 47.1029 0C47.6075 0 48.0175 0.315376 48.0175 1.35611V9.05125C49.0267 8.13666 50.2251 7.56899 51.5497 7.56899C55.0188 7.56899 57.7941 11.4166 57.7941 15.7372C57.7941 20.0894 55.0188 23.9685 51.5497 23.9685C50.1936 23.9685 48.9005 23.3693 47.8913 22.3285C47.5129 22.707 46.3775 23.6531 44.8007 23.6531C43.8545 23.6531 43.823 23.2116 43.823 22.2654V4.79369ZM48.0175 10.6597V20.8463C48.6482 21.6662 49.4367 22.2024 50.2882 22.2024C52.5273 22.2024 53.1581 18.544 53.1581 15.7372C53.1581 12.9619 52.5273 9.33509 50.2882 9.33509C49.4367 9.33509 48.6482 9.87122 48.0175 10.6597Z" fill="white"/>
<path d="M28.72 19.4586C28.72 15.3903 32.3784 14.5388 35.3429 13.2142C35.9736 12.9304 36.6359 12.5204 37.1405 12.1735C36.9828 10.1551 36.3836 8.60973 35.3113 8.60973C33.9237 8.60973 32.883 12.615 30.5807 12.615C29.3508 12.615 28.8777 11.7004 28.8777 10.912C28.8777 8.79895 31.5268 7.56899 35.3113 7.56899C38.8751 7.56899 40.2627 8.9251 40.6727 11.2589C40.9565 12.8357 41.1458 19.6163 41.3981 20.9093C41.5873 21.8555 42.3757 22.0762 42.3757 22.9277C42.3757 23.4008 41.9657 23.6531 41.4611 23.6531H37.4874C37.109 23.6531 36.7305 23.4008 36.5728 22.8016C35.6583 23.4954 34.3021 24 33.1353 24C30.423 24 28.72 21.6978 28.72 19.4586ZM35.7529 14.6334C34.6806 15.3903 33.356 16.6518 33.356 19.1748C33.356 20.0894 33.5768 21.887 34.996 21.887C35.5636 21.887 36.0367 21.6662 36.5098 21.3824C36.6675 19.5848 37.0774 17.3141 37.2036 14.1603V13.6242C36.8567 13.8765 36.3521 14.2234 35.7529 14.6334Z" fill="white"/>
<path d="M13.8417 4.79369C13.8417 3.37451 12.6433 3.18528 13.8417 2.20762L15.9547 0.473063C16.2386 0.220763 16.7116 0 17.1216 0C17.6262 0 18.0362 0.315376 18.0362 1.35611V9.90276C19.1085 8.57819 20.4331 7.56899 22.1676 7.56899C24.186 7.56899 25.9837 8.9251 26.3936 11.2589C26.6775 12.8357 26.8667 19.6163 27.119 20.9093C27.3082 21.8555 28.0967 22.0762 28.0967 22.9277C28.0967 23.4008 27.6867 23.6531 27.1821 23.6531H23.2084C22.6722 23.6531 22.1676 23.18 22.1992 22.0131C22.2622 20.1209 22.7984 17.6925 22.9245 14.1603C23.0191 11.2589 23.1137 9.27201 21.3476 9.27201C20.3384 9.27201 19.0454 10.2812 18.0362 11.7635V18.8909C18.0362 21.477 18.9193 22.2024 18.9193 22.9277C18.9193 23.6531 18.0362 23.6531 18.0362 23.6531H13.8417C13.2425 23.6531 12.9587 23.4008 12.9587 22.9277C12.9587 22.2024 13.8417 21.477 13.8417 18.8909V4.79369Z" fill="white"/>
<path d="M6.02365 23.9685C2.36531 23.9685 0 22.3601 0 20.247C0 19.4586 0.693824 18.544 1.92378 18.544C4.22602 18.544 3.72142 22.9277 5.99212 22.9277C7.159 22.9277 7.94744 21.7608 7.94744 20.657C7.94744 17.251 0.0630749 16.1787 0.0630749 12.0473C0.0630749 8.79895 3.94218 7.56899 6.27595 7.56899C9.9343 7.56899 12.2996 9.1774 12.2996 11.2904C12.2996 12.0788 11.6058 12.9934 10.3758 12.9934C8.07359 12.9934 8.57819 8.60973 6.30749 8.60973C5.1406 8.60973 4.35217 9.77661 4.35217 10.8804C4.35217 14.2865 12.3311 15.5164 12.3311 19.6478C12.3311 22.8962 8.35742 23.9685 6.02365 23.9685Z" fill="white"/>
</svg>
